<svg width="512" height="512" viewBox="0 0 512 512" fill="none" xmlns="http://www.w3.org/2000/svg">
<g clip-path="url(#clip0)">
<path d="M437 286C424.711 286 413.273 289.254 403.027 294.516L382.754 270.422C391.742 265.109 401.465 261.023 411.742 258.723C420.121 256.836 428.426 256.145 437.082 256.016C448.262 256.102 459.262 251.691 467.492 243.535C476.078 235.039 481 223.219 481 209.242C481 132.418 416.281 76 347.949 76H331C322.711 76 316 82.7109 316 91C316 99.2891 322.711 106 331 106H347.949C352.418 106 356.68 106.77 361 107.324V136.309C352.289 137.098 344.086 139.793 336.324 143.406C336.227 143.293 336.102 143.219 336.008 143.105C323.695 148.863 313.082 157.867 305.395 169.398L271.25 220.609C268.906 224.109 265.215 226.469 261.039 227.113C230.672 231.781 204.348 251.141 190.523 279.41C203.336 298.559 211 321.371 211 346H180C180 296.371 139.629 256 90 256C40.3711 256 0 296.371 0 346C0 395.629 40.3711 436 90 436C129.059 436 162.047 410.844 174.473 376H316C324.289 376 331 369.289 331 361C331 352.664 331.996 344.152 333.945 335.719C338.031 318.203 347.141 302.262 359.367 289.238L379.613 313.297C368.781 326.301 362 342.793 362 361C362 402.352 395.648 436 437 436C478.352 436 512 402.352 512 361C512 319.648 478.352 286 437 286ZM90 406C56.9102 406 30 379.09 30 346C30 312.91 56.9102 286 90 286C123.09 286 150 312.91 150 346H105C96.7227 346 90 339.277 90 331C90 322.711 83.2891 316 75 316C66.7109 316 60 322.711 60 331C60 355.812 80.1875 376 105 376H141.656C131.25 393.848 112.113 406 90 406ZM437 406C412.188 406 392 385.812 392 361C392 352.309 394.59 344.258 398.875 337.367L425.281 370.375C430.496 376.879 439.941 377.859 446.375 372.719C452.836 367.531 453.891 358.102 448.719 351.625L422.344 318.656C426.961 317.051 431.84 316 437 316C461.812 316 482 336.188 482 361C482 385.812 461.812 406 437 406Z" fill="#0BE07C"/>
<path d="M254.734 191.309L280.434 152.758C288.648 140.43 299.422 130.414 311.66 122.637C295.199 112.242 276.223 106 256 106C220.559 106 187.82 124.066 168.551 153.039L192.543 167.438C211.816 179 232.922 186.742 254.734 191.309Z" fill="#0BE07C"/>
<path d="M177.105 193.156L80.8477 136H15C6.71094 136 0 142.711 0 151C0 192.352 33.6484 226 75 226C105.004 226 136.129 226.652 169.477 255.641C169.605 255.402 169.605 255.133 169.75 254.902C181.387 236.191 197.816 221.684 216.652 211.488C203.016 206.5 189.664 200.688 177.105 193.156Z" fill="#0BE07C"/>
</g>
<defs>
<clipPath id="clip0">
<rect width="512" height="512" fill="white"/>
</clipPath>
</defs>
</svg>
