<svg width="394" height="392" viewBox="0 0 394 392" fill="none" xmlns="http://www.w3.org/2000/svg">
<path d="M195.742 14C227.719 14 259.734 23.0664 288.328 40.2266C308.383 52.2813 326.16 67.7734 340.844 85.9961L287.188 84.2266L286.727 98.2188L354.562 100.457C358.426 100.582 361.66 97.5547 361.789 93.6914C361.789 93.5352 361.789 93.3828 361.789 93.2305L359.551 25.3945L345.559 25.8555L347.066 71.5898C332.277 54.5078 314.887 39.8711 295.531 28.2227C264.762 9.75781 230.254 0 195.742 0C140.602 0 89.7695 22.7344 52.6133 64.0195C19.668 100.625 0 149.867 0 195.742H14C14 153.23 32.3242 107.492 63.0195 73.3867C97.4844 35.0898 144.621 14 195.742 14Z" fill="#00A591"/>
<path d="M330.98 318.098C296.516 356.398 249.383 377.484 198.258 377.484C166.281 377.484 134.266 368.418 105.672 351.262C85.6172 339.203 67.8398 323.711 53.1563 305.488L106.813 307.262L107.273 293.266L39.4375 291.031C37.5 290.953 35.6211 291.695 34.2578 293.074C32.8867 294.445 32.1484 296.32 32.2109 298.258L34.4492 366.094L48.4414 365.633L46.9336 319.898C61.7227 336.977 79.1133 351.613 98.4688 363.266C129.238 381.727 163.746 391.484 198.258 391.484C253.398 391.484 304.23 368.75 341.387 327.465C374.332 290.859 394 241.617 394 195.742H380C380 238.254 361.676 283.996 330.98 318.098V318.098Z" fill="#00A591"/>
</svg>
