<svg width="512" height="394" viewBox="0 0 512 394" fill="none" xmlns="http://www.w3.org/2000/svg">
<path d="M411.429 383.086C411.429 388.64 415.932 393.143 421.486 393.143H501.943C504.61 393.143 507.168 392.083 509.055 390.197C510.941 388.311 512.001 385.753 512.001 383.085V374.856H411.429V383.086Z" fill="#0BE07C"/>
<path d="M501.943 210.286H421.486C415.932 210.286 411.429 214.789 411.429 220.343V228.572H512V220.343C512 214.789 507.497 210.286 501.943 210.286Z" fill="#0BE07C"/>
<path d="M210.286 274.286H310.857H393.143V246.858H210.286V274.286Z" fill="#0BE07C"/>
<path d="M420.571 27.429C420.571 12.281 408.291 0 393.142 0H118.857C103.709 0 91.428 12.28 91.428 27.429V82.286H169.014C191.797 82.311 210.26 100.774 210.285 123.557V228.572H393.142V220.343C393.193 205.082 405.318 192.602 420.571 192.11V27.429Z" fill="#0BE07C"/>
<path d="M301.715 292.572H210.286V329.143H301.715V292.572Z" fill="#0BE07C"/>
<path d="M512 246.858H411.429V356.572H512V246.858Z" fill="#0BE07C"/>
<path d="M0 370.158C0.01 382.848 10.295 393.133 22.985 393.143H169.015C181.705 393.133 191.99 382.848 192 370.158V365.715H0V370.158Z" fill="#0BE07C"/>
<path d="M0 347.429H192V338.286V283.429V146.286H0V347.429Z" fill="#0BE07C"/>
<path d="M169.015 100.572H22.985C10.295 100.582 0.01 110.867 0 123.557V128H192V123.557C191.99 110.867 181.705 100.582 169.015 100.572Z" fill="#0BE07C"/>
<path d="M347.429 347.429H210.286V365.715H356.572V356.572C356.571 351.523 352.478 347.429 347.429 347.429Z" fill="#0BE07C"/>
</svg>
