<svg width="512" height="512" viewBox="0 0 512 512" fill="none" xmlns="http://www.w3.org/2000/svg">
<path d="M484.332 482V217.668H397V274.168H426V316.836H397V482H367V118.73L324.332 97.3984V49H271V0H241V49H187.668V97.3945L145 118.73V482H115V369.332H86V326.664H115V284H86V241.332H115V166.332H27.668V482H0V512H512V482H484.332ZM239 316.832H209V274.164H239V316.832ZM239 188.832V231.5H209V188.836H239V188.832ZM209 359.5H239V402.168H209V359.5ZM303 402.168H273V359.5H303V402.168ZM273 316.832V274.164H303V316.832H273ZM303 231.5H273V188.836H303V231.5Z" fill="#0BE07C"/>
</svg>
