<svg width="503" height="488" viewBox="0 0 503 488" fill="none" xmlns="http://www.w3.org/2000/svg">
<path d="M405.667 487.2H78.1999C35.5333 487.2 0.333252 452 0.333252 409.333V0.80011H433.4V421.067H412.067V22.1334H21.6666V409.333C21.6666 440.267 47.2666 465.867 78.1999 465.867H406.733C447.267 465.867 481.4 432.8 481.4 391.2V11.4668H502.733V391.2C501.667 444.533 459 487.2 405.667 487.2Z" fill="#0BE07C"/>
<path d="M216.866 297.333H55.7996V135.2H217.933V297.333H216.866ZM77.1329 276H196.6V156.533H77.1329V276Z" fill="#0BE07C"/>
<path d="M364.068 145.867H268.068V167.2H364.068V145.867Z" fill="#0BE07C"/>
<path d="M364.068 205.6H268.068V226.934H364.068V205.6Z" fill="#0BE07C"/>
<path d="M364.068 265.333H268.068V286.667H364.068V265.333Z" fill="#0BE07C"/>
<path d="M365.133 348.533H66.4661V369.867H365.133V348.533Z" fill="#0BE07C"/>
<path d="M365.133 407.2H82.4661V428.533H365.133V407.2Z" fill="#0BE07C"/>
<path d="M97.0117 31.6875H114.59V90.75C114.59 96.1797 113.379 100.984 110.957 105.164C108.574 109.305 105.195 112.508 100.82 114.773C96.4453 117.039 91.5039 118.172 85.9961 118.172C76.9727 118.172 69.9414 115.887 64.9023 111.316C59.8633 106.707 57.3438 100.203 57.3438 91.8047H75.0391C75.0391 95.9844 75.918 99.0703 77.6758 101.062C79.4336 103.055 82.207 104.051 85.9961 104.051C89.3555 104.051 92.0312 102.898 94.0234 100.594C96.0156 98.2891 97.0117 95.0078 97.0117 90.75V31.6875ZM199.727 76.2773C199.727 84.6758 198.242 92.0391 195.273 98.3672C192.305 104.695 188.047 109.578 182.5 113.016C176.992 116.453 170.664 118.172 163.516 118.172C156.445 118.172 150.137 116.473 144.59 113.074C139.043 109.676 134.746 104.832 131.699 98.543C128.652 92.2148 127.109 84.9492 127.07 76.7461V72.5273C127.07 64.1289 128.574 56.7461 131.582 50.3789C134.629 43.9727 138.906 39.0703 144.414 35.6719C149.961 32.2344 156.289 30.5156 163.398 30.5156C170.508 30.5156 176.816 32.2344 182.324 35.6719C187.871 39.0703 192.148 43.9727 195.156 50.3789C198.203 56.7461 199.727 64.1094 199.727 72.4688V76.2773ZM181.914 72.4102C181.914 63.4648 180.312 56.668 177.109 52.0195C173.906 47.3711 169.336 45.0469 163.398 45.0469C157.5 45.0469 152.949 47.3516 149.746 51.9609C146.543 56.5312 144.922 63.25 144.883 72.1172V76.2773C144.883 84.9883 146.484 91.7461 149.688 96.5508C152.891 101.355 157.5 103.758 163.516 103.758C169.414 103.758 173.945 101.453 177.109 96.8438C180.273 92.1953 181.875 85.4375 181.914 76.5703V72.4102ZM212.5 117V31.6875H242.383C252.734 31.6875 260.586 33.6797 265.938 37.6641C271.289 41.6094 273.965 47.4102 273.965 55.0664C273.965 59.2461 272.891 62.9375 270.742 66.1406C268.594 69.3047 265.605 71.6289 261.777 73.1133C266.152 74.207 269.59 76.4141 272.09 79.7344C274.629 83.0547 275.898 87.1172 275.898 91.9219C275.898 100.125 273.281 106.336 268.047 110.555C262.812 114.773 255.352 116.922 245.664 117H212.5ZM230.078 79.8516V102.879H245.137C249.277 102.879 252.5 101.902 254.805 99.9492C257.148 97.957 258.32 95.2227 258.32 91.7461C258.32 83.9336 254.277 79.9688 246.191 79.8516H230.078ZM230.078 67.4297H243.086C251.953 67.2734 256.387 63.7383 256.387 56.8242C256.387 52.957 255.254 50.1836 252.988 48.5039C250.762 46.7852 247.227 45.9258 242.383 45.9258H230.078V67.4297ZM333.379 94.6172C333.379 91.2969 332.207 88.7578 329.863 87C327.52 85.2031 323.301 83.3281 317.207 81.375C311.113 79.3828 306.289 77.4297 302.734 75.5156C293.047 70.2812 288.203 63.2305 288.203 54.3633C288.203 49.7539 289.492 45.6523 292.07 42.0586C294.688 38.4258 298.418 35.5938 303.262 33.5625C308.145 31.5312 313.613 30.5156 319.668 30.5156C325.762 30.5156 331.191 31.6289 335.957 33.8555C340.723 36.043 344.414 39.1484 347.031 43.1719C349.688 47.1953 351.016 51.7656 351.016 56.8828H333.438C333.438 52.9766 332.207 49.9492 329.746 47.8008C327.285 45.6133 323.828 44.5195 319.375 44.5195C315.078 44.5195 311.738 45.4375 309.355 47.2734C306.973 49.0703 305.781 51.4531 305.781 54.4219C305.781 57.1953 307.168 59.5195 309.941 61.3945C312.754 63.2695 316.875 65.0273 322.305 66.668C332.305 69.6758 339.59 73.4062 344.16 77.8594C348.73 82.3125 351.016 87.8594 351.016 94.5C351.016 101.883 348.223 107.684 342.637 111.902C337.051 116.082 329.531 118.172 320.078 118.172C313.516 118.172 307.539 116.98 302.148 114.598C296.758 112.176 292.637 108.875 289.785 104.695C286.973 100.516 285.566 95.6719 285.566 90.1641H303.203C303.203 99.5781 308.828 104.285 320.078 104.285C324.258 104.285 327.52 103.445 329.863 101.766C332.207 100.047 333.379 97.6641 333.379 94.6172Z" fill="#0BE07C"/>
</svg>
