<svg width="491" height="470" viewBox="0 0 491 470" fill="none" xmlns="http://www.w3.org/2000/svg">
<path d="M324.89 250.978H15.9783C7.15823 250.978 0 243.82 0 235C0 226.18 7.15823 219.022 15.9783 219.022H324.89C333.71 219.022 340.868 226.18 340.868 235C340.868 243.82 333.71 250.978 324.89 250.978Z" fill="#00A591"/>
<path d="M239.674 336.194C235.582 336.194 231.494 334.642 228.381 331.509C222.139 325.268 222.139 315.149 228.381 308.903L302.307 234.98L228.381 161.054C222.139 154.812 222.139 144.689 228.381 138.448C234.626 132.206 244.745 132.206 250.987 138.448L336.203 223.668C342.444 229.909 342.444 240.028 336.203 246.27L250.987 331.486C247.854 334.642 243.766 336.194 239.674 336.194V336.194Z" fill="#00A591"/>
<path d="M255.652 469.349C158.694 469.349 73.0959 411.018 37.5388 320.727C34.301 312.547 38.3463 303.259 46.5499 300.021C54.7302 296.826 64.0418 300.809 67.2796 309.055C97.98 387.008 171.926 437.393 255.652 437.393C367.243 437.393 458.045 346.59 458.045 235C458.045 123.41 367.243 32.6074 255.652 32.6074C171.926 32.6074 97.98 82.992 67.2796 160.945C64.0184 169.191 54.7302 173.174 46.5499 169.979C38.3463 166.741 34.301 157.453 37.5388 149.273C73.0959 58.9817 158.694 0.650879 255.652 0.650879C384.863 0.650879 490.001 105.789 490.001 235C490.001 364.211 384.863 469.349 255.652 469.349V469.349Z" fill="#00A591"/>
</svg>
