<svg width="281" height="65" viewBox="0 0 281 65" fill="none" xmlns="http://www.w3.org/2000/svg">
<rect width="281" height="65" fill="black"/>
<path d="M54.543 43.0469C53.3828 44.4362 51.7428 45.5176 49.623 46.291C47.5033 47.0501 45.1543 47.4297 42.5762 47.4297C39.8691 47.4297 37.4915 46.8424 35.4434 45.668C33.4095 44.4792 31.834 42.7604 30.7168 40.5117C29.6139 38.263 29.0482 35.6204 29.0195 32.584V30.457C29.0195 27.3346 29.5423 24.6348 30.5879 22.3574C31.6478 20.0658 33.166 18.3184 35.1426 17.1152C37.1335 15.8978 39.4609 15.2891 42.125 15.2891C45.8346 15.2891 48.735 16.1771 50.8262 17.9531C52.9173 19.7148 54.1562 22.2858 54.543 25.666H48.2695C47.9831 23.8757 47.3457 22.5651 46.3574 21.7344C45.3835 20.9036 44.0371 20.4883 42.3184 20.4883C40.127 20.4883 38.4583 21.3118 37.3125 22.959C36.1667 24.6061 35.5866 27.0553 35.5723 30.3066V32.3047C35.5723 35.5846 36.1953 38.0625 37.4414 39.7383C38.6875 41.4141 40.5137 42.252 42.9199 42.252C45.3405 42.252 47.0664 41.7363 48.0977 40.7051V35.3125H42.2324V30.5645H54.543V43.0469ZM72.2195 29.5762C71.3744 29.4616 70.6296 29.4043 69.9851 29.4043C67.6361 29.4043 66.0964 30.1992 65.3659 31.7891V47H59.157V23.7539H65.0222L65.1941 26.5254C66.4402 24.3913 68.1661 23.3242 70.3718 23.3242C71.0593 23.3242 71.7038 23.4173 72.3054 23.6035L72.2195 29.5762ZM87.8334 47C87.547 46.4414 87.3393 45.7467 87.2104 44.916C85.7065 46.5918 83.7514 47.4297 81.3452 47.4297C79.0678 47.4297 77.1772 46.7708 75.6733 45.4531C74.1837 44.1354 73.4389 42.474 73.4389 40.4688C73.4389 38.0052 74.3484 36.1146 76.1674 34.7969C78.0008 33.4792 80.6433 32.8132 84.0952 32.7988H86.9526V31.4668C86.9526 30.3926 86.6733 29.5332 86.1147 28.8887C85.5704 28.2441 84.7039 27.9219 83.5151 27.9219C82.4695 27.9219 81.6459 28.1725 81.0444 28.6738C80.4571 29.1751 80.1635 29.8626 80.1635 30.7363H73.9545C73.9545 29.39 74.3699 28.1439 75.2006 26.998C76.0314 25.8522 77.2058 24.957 78.7241 24.3125C80.2423 23.6536 81.9467 23.3242 83.8373 23.3242C86.7019 23.3242 88.9721 24.0475 90.6479 25.4941C92.338 26.9264 93.183 28.946 93.183 31.5527V41.6289C93.1974 43.8346 93.5053 45.5033 94.1069 46.6348V47H87.8334ZM82.6987 42.6816C83.6153 42.6816 84.4604 42.4811 85.2338 42.0801C86.0073 41.6647 86.5802 41.1133 86.9526 40.4258V36.4297H84.6323C81.5242 36.4297 79.8699 37.5039 79.6694 39.6523L79.6479 40.0176C79.6479 40.791 79.92 41.4284 80.4643 41.9297C81.0086 42.431 81.7534 42.6816 82.6987 42.6816ZM99.2365 47V28.3086H95.7775V23.7539H99.2365V22.6797C99.2651 19.7578 100.16 17.5091 101.922 15.9336C103.698 14.3438 106.197 13.5488 109.42 13.5488C111.354 13.5488 113.703 13.9714 116.467 14.8164L115.565 19.9512C114.161 19.5358 113.072 19.2708 112.299 19.1562C111.526 19.0273 110.695 18.9629 109.807 18.9629C106.914 18.9629 105.467 20.2448 105.467 22.8086V23.7539H110.043V28.3086H105.467V47H99.2365ZM119.367 47H113.137V23.7539H119.367V47ZM131.716 18.0391V23.7539H135.69V28.3086H131.716V39.9102C131.716 40.7695 131.88 41.3854 132.21 41.7578C132.539 42.1302 133.169 42.3164 134.1 42.3164C134.788 42.3164 135.397 42.2663 135.927 42.166V46.8711C134.709 47.2435 133.456 47.4297 132.167 47.4297C127.813 47.4297 125.593 45.2311 125.507 40.834V28.3086H122.112V23.7539H125.507V18.0391H131.716ZM147.609 38.2129L151.906 23.7539H158.566L149.22 50.6094L148.705 51.834C147.315 54.8704 145.024 56.3887 141.83 56.3887C140.927 56.3887 140.011 56.2526 139.08 55.9805V51.2754L140.025 51.2969C141.199 51.2969 142.073 51.1178 142.646 50.7598C143.233 50.4017 143.692 49.8073 144.021 48.9766L144.752 47.0645L136.609 23.7539H143.291L147.609 38.2129ZM157.508 43.9492C157.508 42.9609 157.838 42.1589 158.496 41.543C159.17 40.9271 160.007 40.6191 161.01 40.6191C162.027 40.6191 162.865 40.9271 163.524 41.543C164.197 42.1589 164.534 42.9609 164.534 43.9492C164.534 44.9232 164.204 45.7181 163.545 46.334C162.886 46.9355 162.041 47.2363 161.01 47.2363C159.993 47.2363 159.155 46.9355 158.496 46.334C157.838 45.7181 157.508 44.9232 157.508 43.9492ZM179.439 42.4238C180.584 42.4238 181.515 42.1087 182.231 41.4785C182.948 40.8483 183.32 40.0104 183.349 38.9648H189.171C189.157 40.5404 188.727 41.987 187.882 43.3047C187.037 44.6081 185.877 45.625 184.401 46.3555C182.94 47.0716 181.322 47.4297 179.546 47.4297C176.223 47.4297 173.602 46.377 171.683 44.2715C169.763 42.1517 168.804 39.2298 168.804 35.5059V35.0977C168.804 31.5169 169.756 28.6595 171.661 26.5254C173.566 24.3913 176.18 23.3242 179.503 23.3242C182.411 23.3242 184.738 24.1549 186.485 25.8164C188.247 27.4635 189.142 29.6621 189.171 32.4121H183.349C183.32 31.209 182.948 30.235 182.231 29.4902C181.515 28.7311 180.57 28.3516 179.396 28.3516C177.949 28.3516 176.853 28.8815 176.108 29.9414C175.378 30.987 175.013 32.6914 175.013 35.0547V35.6992C175.013 38.0911 175.378 39.8099 176.108 40.8555C176.839 41.901 177.949 42.4238 179.439 42.4238ZM191.529 35.1621C191.529 32.8561 191.973 30.8008 192.861 28.9961C193.749 27.1914 195.024 25.7949 196.685 24.8066C198.361 23.8184 200.302 23.3242 202.508 23.3242C205.644 23.3242 208.201 24.2839 210.178 26.2031C212.168 28.1224 213.278 30.7292 213.508 34.0234L213.551 35.6133C213.551 39.1797 212.555 42.0443 210.564 44.207C208.573 46.3555 205.902 47.4297 202.551 47.4297C199.199 47.4297 196.521 46.3555 194.515 44.207C192.525 42.0586 191.529 39.1367 191.529 35.4414V35.1621ZM197.738 35.6133C197.738 37.819 198.153 39.5091 198.984 40.6836C199.815 41.8438 201.004 42.4238 202.551 42.4238C204.054 42.4238 205.229 41.8509 206.074 40.7051C206.919 39.5449 207.342 37.6973 207.342 35.1621C207.342 32.9993 206.919 31.3236 206.074 30.1348C205.229 28.946 204.04 28.3516 202.508 28.3516C200.989 28.3516 199.815 28.946 198.984 30.1348C198.153 31.3092 197.738 33.1354 197.738 35.6133ZM222.977 23.7539L223.17 26.3535C224.818 24.334 227.045 23.3242 229.852 23.3242C232.846 23.3242 234.901 24.5059 236.018 26.8691C237.651 24.5059 239.978 23.3242 243 23.3242C245.521 23.3242 247.398 24.0618 248.629 25.5371C249.861 26.998 250.477 29.2038 250.477 32.1543V47H244.247V32.1758C244.247 30.8581 243.989 29.8984 243.473 29.2969C242.958 28.681 242.048 28.373 240.745 28.373C238.883 28.373 237.594 29.2611 236.877 31.0371L236.899 47H230.69V32.1973C230.69 30.8509 230.425 29.877 229.895 29.2754C229.365 28.6738 228.463 28.373 227.188 28.373C225.426 28.373 224.152 29.1035 223.364 30.5645V47H217.155V23.7539H222.977Z" fill="#3771BC"/>
</svg>
