<svg width="512" height="482" viewBox="0 0 512 482" fill="none" xmlns="http://www.w3.org/2000/svg">
<path d="M508.19 5.51697C503.76 0.557011 496.77 -0.772979 490.98 1.757L8.98391 212.755C3.64395 215.095 0.133981 220.325 0.0039821 226.165C-0.126017 231.995 3.14396 237.375 8.38392 239.955L123.473 296.555L152.153 468.613C153.083 475.143 158.213 480.393 164.893 481.343C169.693 482.033 174.463 480.343 177.763 476.943L268.622 386.084L398.281 478.703C402.441 481.663 407.801 482.313 412.521 480.443C417.251 478.573 420.711 474.423 421.711 469.433L511.71 18.4369C512.6 13.9669 511.45 9.17694 508.19 5.51697ZM135.353 268.965L50.6036 227.285L385.421 80.7164L135.353 268.965ZM182.293 313.555L168.343 383.304L153.293 293.005L337.261 154.516L186.383 305.905C184.263 308.025 182.853 310.785 182.293 313.555ZM191.422 420.854L207.162 342.184L243.872 368.404L191.422 420.854ZM396.831 440.794L220.102 314.565L472.57 61.2565L396.831 440.794Z" fill="#2D323E"/>
</svg>
