<svg width="512" height="488" viewBox="0 0 512 488" fill="none" xmlns="http://www.w3.org/2000/svg">
<path d="M279.219 347.695H217.079V218.246H297.426L279.219 347.695Z" fill="#0BE07C"/>
<path d="M315.85 294.137L232.487 294.119C223.977 294.117 217.079 287.218 217.079 278.708V257.451C197.361 257.451 178.733 266.493 166.534 281.984L154.107 297.765C146.545 307.368 134.996 312.973 122.773 312.973H104.318V452.704H139.121C144.176 452.704 149.185 453.665 153.881 455.536L186.799 468.65C204.206 474.584 222.47 477.612 240.86 477.612H289.796C299.394 477.612 307.174 469.831 307.174 460.234V449.122C307.174 439.524 299.393 431.744 289.796 431.744H300.934C310.532 431.744 318.312 423.964 318.312 414.366V403.254C318.312 393.656 310.532 385.876 300.934 385.876H309.786C319.384 385.876 327.164 378.096 327.164 368.498V357.386C327.164 347.788 319.384 340.008 309.786 340.008H315.849C325.447 340.008 333.227 332.228 333.227 322.63V311.514C333.228 301.917 325.448 294.137 315.85 294.137Z" fill="#0BE07C"/>
<path d="M315.85 294.137L232.487 294.119C223.977 294.117 217.079 287.218 217.079 278.708V257.451C197.361 257.451 178.733 266.493 166.534 281.984L154.107 297.765C146.545 307.368 134.996 312.973 122.773 312.973H104.318V452.704H139.121C144.176 452.704 149.185 453.665 153.881 455.536L186.799 468.65C204.206 474.584 222.47 477.612 240.86 477.612H289.796C299.394 477.612 307.174 469.831 307.174 460.234V449.122C307.174 439.524 299.393 431.744 289.796 431.744H300.934C310.532 431.744 318.312 423.964 318.312 414.366V403.254C318.312 393.656 310.532 385.876 300.934 385.876H309.786C319.384 385.876 327.164 378.096 327.164 368.498V357.386C327.164 347.788 319.384 340.008 309.786 340.008H315.849C325.447 340.008 333.227 332.228 333.227 322.63V311.514C333.228 301.917 325.448 294.137 315.85 294.137Z" fill="#0BE07C"/>
<path d="M100.352 298.403H16.2921C11.4511 298.403 7.5271 302.327 7.5271 307.168V458.918C7.5271 463.759 11.4511 467.683 16.2921 467.683H100.353V298.403H100.352Z" fill="#0BE07C"/>
<path d="M115.686 286.345H90.249C85.498 286.345 81.646 290.197 81.646 294.948V471.139C81.646 475.89 85.498 479.742 90.249 479.742H115.686C120.437 479.742 124.289 475.89 124.289 471.139V294.947C124.289 290.196 120.437 286.345 115.686 286.345Z" fill="#0BE07C"/>
<path d="M215.693 126.722L179.9 126.725C156.795 126.727 138.066 145.459 138.068 168.563C138.07 191.668 156.802 210.397 179.906 210.395L215.699 210.392L215.693 126.722Z" fill="#0BE07C"/>
<path d="M474.804 17.4C442.321 70.594 384.254 103.618 321.103 103.623L305.131 103.624L293.466 118.008L293.474 214.998L305.141 229.366L321.113 229.365C384.264 229.36 442.336 262.375 474.828 315.563L474.804 17.4Z" fill="#0BE07C"/>
<path d="M474.804 17.4C459.886 41.829 439.563 61.988 415.839 76.664L415.853 256.308C439.579 270.981 459.906 291.136 474.828 315.563L474.804 17.4Z" fill="#0BE07C"/>
<path d="M305.13 103.624L208.428 103.632C197.404 103.633 188.468 112.57 188.469 123.594L188.476 209.416C188.477 220.44 197.414 229.376 208.438 229.375L305.14 229.367L305.13 103.624Z" fill="#0BE07C"/>
<path d="M480.574 325.433C493.774 325.432 504.474 314.73 504.473 301.53L504.451 31.426C504.45 18.226 493.748 7.52601 480.548 7.52701C467.348 7.52801 456.648 18.23 456.649 31.43L456.671 301.534C456.672 314.734 467.374 325.434 480.574 325.433Z" fill="#0BE07C"/>
<path d="M315.85 294.137L232.487 294.119C223.977 294.117 217.079 287.218 217.079 278.708V288.708C217.079 302.578 228.322 313.823 242.192 313.825L315.85 313.835C323.963 313.835 330.758 319.403 332.672 326.921C333.022 325.546 333.228 324.113 333.228 322.629V311.517C333.228 301.917 325.448 294.137 315.85 294.137Z" fill="#0BE07C"/>
<path d="M309.787 340.005H235.143V343.083C235.143 353.784 243.818 362.459 254.519 362.459H309.787C317.395 362.459 323.844 367.355 326.198 374.162C326.818 372.386 327.165 370.482 327.165 368.494V357.382C327.165 347.785 319.384 340.005 309.787 340.005Z" fill="#0BE07C"/>
<path d="M300.935 385.873H244.175V389.244C244.175 399.945 252.85 408.62 263.551 408.62H300.935C308.483 408.62 314.888 413.441 317.288 420.164C317.935 418.347 318.313 416.402 318.313 414.363V403.251C318.313 393.654 310.533 385.873 300.935 385.873Z" fill="#0BE07C"/>
<path d="M289.797 431.742H253.207C253.207 442.443 261.882 451.118 272.583 451.118H300.308C304.101 451.118 307.175 454.193 307.175 457.985V449.119C307.175 439.522 299.395 431.742 289.797 431.742Z" fill="#0BE07C"/>
<path d="M511.984 103.763C511.984 99.606 508.614 96.236 504.457 96.237C500.3 96.238 496.93 99.607 496.931 103.764L496.947 301.531C496.948 310.581 489.625 317.905 480.574 317.906C471.545 317.907 464.199 310.562 464.198 301.533L464.176 31.429C464.175 22.38 471.498 15.054 480.549 15.053C489.578 15.053 496.924 22.397 496.925 31.426L496.928 68.437C496.928 72.594 500.298 75.964 504.455 75.963C508.612 75.962 511.982 72.593 511.981 68.436L511.978 31.425C511.977 14.095 497.877 -0.00199979 480.548 2.12786e-07C463.218 0.00100021 449.121 14.101 449.123 31.43L449.124 39.2C416.422 75.383 369.932 96.092 321.103 96.096C296.145 96.098 231.8 96.103 208.429 96.105C194.769 96.106 183.41 106.124 181.3 119.198H179.901C152.621 119.2 130.541 141.28 130.543 168.564C130.545 195.841 152.62 217.923 179.905 217.922H179.909H182.295C183.617 221.998 185.886 225.735 189.004 228.852C194.196 234.044 201.099 236.902 208.441 236.902H209.554V250.317C190.303 252.309 172.769 261.901 160.622 277.326C150.631 288.461 146.691 299.821 131.818 304.135V294.948C131.818 286.054 124.582 278.819 115.689 278.819H90.249C82.764 278.819 76.472 283.952 74.661 290.877H16.292C7.309 290.876 0 298.184 0 307.168V458.918C0 467.902 7.309 475.21 16.292 475.21H74.661C76.472 482.135 82.764 487.268 90.249 487.268H115.686C124.58 487.268 131.815 480.032 131.815 471.139V460.23C137.109 460.495 142.945 459.281 151.095 462.528C165.721 467.218 194 485.138 240.86 485.138H289.796C303.529 485.138 314.701 473.966 314.701 460.233V449.121C314.701 444.69 313.538 440.525 311.5 436.916C319.965 432.934 325.839 424.323 325.839 414.365V403.253C325.839 398.444 324.469 393.95 322.099 390.139C329.614 385.847 334.691 377.754 334.691 368.497V357.385C334.691 352.042 332.999 347.087 330.125 343.026C336.548 338.517 340.755 331.054 340.755 322.628V311.514C340.755 297.782 329.583 286.61 315.852 286.61L295.412 286.605L302.404 236.893C307.213 236.893 316.283 236.892 321.113 236.891H321.126C369.948 236.891 416.44 257.593 449.144 293.767L449.145 301.534C449.146 318.864 463.246 332.961 480.575 332.959C497.943 332.958 512.002 318.901 512 301.529L511.984 103.763ZM179.903 202.868C160.987 202.868 145.596 187.479 145.595 168.562C145.593 149.601 160.936 134.252 179.901 134.25H180.945L180.95 202.867C180.365 202.868 180.494 202.868 179.903 202.868ZM208.438 221.848C205.117 221.849 201.995 220.555 199.646 218.207C197.534 216.096 196.285 213.357 196.052 210.412C196.052 210.406 196.053 210.4 196.053 210.393C196.029 107.454 195.998 125.776 195.997 123.593C195.997 116.737 201.573 111.159 208.429 111.158L297.604 111.151L297.613 221.84L217.084 221.847C217.082 221.847 217.08 221.847 217.079 221.847C217.077 221.847 217.075 221.847 217.074 221.847L208.438 221.848ZM116.762 471.138C116.762 471.731 116.279 472.214 115.686 472.214H90.249C89.656 472.214 89.173 471.731 89.173 471.138V365.288C89.173 361.131 85.803 357.761 81.646 357.761C77.489 357.761 74.119 361.131 74.119 365.288V460.156H16.292C15.609 460.156 15.054 459.6 15.054 458.917V307.167C15.054 306.484 15.61 305.928 16.292 305.928H74.12V330.1C74.12 334.257 77.49 337.627 81.647 337.627C85.804 337.627 89.174 334.257 89.174 330.1V294.946C89.174 294.353 89.657 293.87 90.25 293.87H115.687C116.28 293.87 116.763 294.353 116.763 294.946V471.138H116.762ZM325.702 311.514V322.627C325.702 328.059 321.283 332.478 315.851 332.478H309.787C305.63 332.478 302.26 335.848 302.26 340.005C302.26 344.162 305.63 347.532 309.787 347.532C315.219 347.532 319.638 351.951 319.638 357.383V368.495C319.638 373.927 315.219 378.346 309.787 378.346H300.935C296.778 378.346 293.408 381.716 293.408 385.873C293.408 390.03 296.778 393.4 300.935 393.4C306.367 393.4 310.786 397.819 310.786 403.252V414.364C310.786 419.796 306.367 424.216 300.935 424.216H289.797C285.64 424.216 282.27 427.586 282.27 431.743C282.27 435.9 285.64 439.27 289.797 439.27C295.229 439.27 299.648 443.689 299.648 449.121V460.233C299.648 465.665 295.229 470.084 289.796 470.084H240.86C197.866 470.084 172.878 453.782 156.666 448.543C145.044 443.913 136.339 445.442 131.815 445.176V319.606C156.029 314.92 163.56 295.91 172.446 286.638C181.717 274.866 194.954 267.387 209.552 265.467V278.706C209.552 291.351 219.84 301.641 232.485 301.644C248.103 301.647 299.782 301.659 315.85 301.663C321.282 301.663 325.702 306.082 325.702 311.514ZM280.211 286.602L232.489 286.591C228.142 286.59 224.606 283.053 224.606 278.706V257.448V236.899L287.203 236.894L280.211 286.602ZM321.126 221.838C321.123 221.838 321.115 221.838 321.112 221.838L312.666 221.839L312.657 111.15H321.103C368.853 111.146 414.546 92.932 449.125 60.647L449.142 272.321C414.562 240.044 368.872 221.838 321.126 221.838Z" fill="#0BE07C"/>
</svg>
