<svg width="512" height="342" viewBox="0 0 512 342" fill="none" xmlns="http://www.w3.org/2000/svg">
<path d="M510.385 125.428C505.687 106.23 489.489 90.595 470.083 86.532C454.02 83.167 437.593 87.084 425.062 97.251C412.52 107.439 405.333 122.532 405.333 138.668V192.001H106.667V140.949C106.667 113.782 87.552 90.189 62.209 86.053C46.615 83.563 30.74 87.876 18.792 98.032C6.854 108.188 0 123 0 138.667C0 155.344 8.042 171.094 21.333 181.115V256C21.333 279.532 40.469 298.667 64 298.667V309.334C64 326.98 78.354 341.334 96 341.334C113.646 341.334 128 326.98 128 309.334V298.667H384V309.334C384 326.98 398.354 341.334 416 341.334C433.646 341.334 448 326.98 448 309.334V298.667C471.531 298.667 490.667 279.532 490.667 256V181.125C504.174 170.993 511.948 155.318 512 138.661C512.014 134.291 511.466 129.852 510.385 125.428ZM53.333 149.334C47.442 149.334 42.666 144.558 42.666 138.667C42.666 132.775 47.442 128 53.333 128C59.224 128 64 132.775 64 138.667C64 144.558 59.224 149.334 53.333 149.334ZM458.667 149.334C452.776 149.334 448 144.558 448 138.667C448 132.775 452.776 128 458.667 128C464.558 128 469.334 132.775 469.334 138.667C469.333 144.558 464.557 149.334 458.667 149.334Z" fill="#0BE07C"/>
<path d="M430.365 53.271C390.521 17.928 331.854 0 256 0C179.896 0 121.125 17.958 81.3327 53.375C78.6557 55.76 77.3537 59.333 77.8747 62.885C78.3847 66.428 80.6557 69.48 83.9057 71C110.688 83.553 128 111.011 128 140.948V160C128 165.896 132.771 170.667 138.667 170.667H373.334C379.23 170.667 384.001 165.896 384.001 160V138.667C384.001 109.719 401.168 83.136 427.73 70.948C431.011 69.438 433.303 66.385 433.834 62.823C434.365 59.25 433.053 55.667 430.365 53.271Z" fill="#0BE07C"/>
</svg>
